{"asset":{"version":"2.0","generator":"Montes de Oca exact gameplay terrain tile benchmark"},"scene":0,"scenes":[{"nodes":[0]}],"nodes":[{"mesh":0,"name":"IGN MDT05 terrain tile_3_3"}],"meshes":[{"primitives":[{"attributes":{"POSITION":0,"NORMAL":1,"COLOR_0":2,"TEXCOORD_0":3},"indices":4,"material":0}]}],"materials":[{"name":"PNOA 2023 orthophoto","pbrMetallicRoughness":{"baseColorTexture":{"index":0},"metallicFactor":0,"roughnessFactor":0.96}}],"textures":[{"sampler":0,"source":0}],"images":[{"uri":"orthophoto.webp"}],"samplers":[{"magFilter":9729,"minFilter":9987,"wrapS":33071,"wrapT":33071}],"buffers":[{"uri":"tile.bin","byteLength":2419248}],"bufferViews":[{"buffer":0,"byteOffset":0,"byteLength":484812,"target":34962},{"buffer":0,"byteOffset":484812,"byteLength":484812,"target":34962},{"buffer":0,"byteOffset":969624,"byteLength":646416,"target":34962},{"buffer":0,"byteOffset":1616040,"byteLength":323208,"target":34962},{"buffer":0,"byteOffset":1939248,"byteLength":480000,"target":34963}],"accessors":[{"bufferView":0,"componentType":5126,"count":40401,"type":"VEC3","min":[3000.0,65.0,3000.0],"max":[4000.0,192.0,4000.0]},{"bufferView":1,"componentType":5126,"count":40401,"type":"VEC3"},{"bufferView":2,"componentType":5126,"count":40401,"type":"VEC4"},{"bufferView":3,"componentType":5126,"count":40401,"type":"VEC2"},{"bufferView":4,"componentType":5123,"count":240000,"type":"SCALAR"}]}