{"asset":{"version":"2.0","generator":"Montes de Oca 3D Tiles proof of concept"},"scene":0,"scenes":[{"nodes":[0,1]}],"nodes":[{"mesh":0,"name":"IGN MDT05 terrain"},{"mesh":1,"name":"OSM building outlines"}],"meshes":[{"primitives":[{"attributes":{"POSITION":0,"NORMAL":1,"TEXCOORD_0":2},"indices":3,"material":0}]},{"primitives":[{"attributes":{"POSITION":4,"NORMAL":5},"indices":6,"material":1}]}],"materials":[{"name":"PNOA 2023 orthophoto","pbrMetallicRoughness":{"baseColorTexture":{"index":0},"metallicFactor":0,"roughnessFactor":1}},{"name":"OSM buildings","pbrMetallicRoughness":{"baseColorFactor":[0.68,0.57,0.44,1],"metallicFactor":0,"roughnessFactor":1}}],"textures":[{"sampler":0,"source":0}],"images":[{"uri":"orthophoto.jpg"}],"samplers":[{"magFilter":9729,"minFilter":9987,"wrapS":33071,"wrapT":33071}],"buffers":[{"uri":"tile.bin","byteLength":5418068}],"bufferViews":[{"buffer":0,"byteOffset":0,"byteLength":1087212,"target":34962},{"buffer":0,"byteOffset":1087212,"byteLength":1087212,"target":34962},{"buffer":0,"byteOffset":2174424,"byteLength":724808,"target":34962},{"buffer":0,"byteOffset":2899232,"byteLength":2160000,"target":34963},{"buffer":0,"byteOffset":5059232,"byteLength":141060,"target":34962},{"buffer":0,"byteOffset":5200292,"byteLength":141060,"target":34962},{"buffer":0,"byteOffset":5341352,"byteLength":76716,"target":34963}],"accessors":[{"bufferView":0,"componentType":5126,"count":90601,"type":"VEC3","min":[2000,2000,49.0],"max":[5000,5000,243.0]},{"bufferView":1,"componentType":5126,"count":90601,"type":"VEC3"},{"bufferView":2,"componentType":5126,"count":90601,"type":"VEC2"},{"bufferView":3,"componentType":5125,"count":540000,"type":"SCALAR"},{"bufferView":4,"componentType":5126,"count":11755,"type":"VEC3","min":[2911.85,3213.77,65.26999999999998],"max":[3618.74,4536.38,113.244768]},{"bufferView":5,"componentType":5126,"count":11755,"type":"VEC3"},{"bufferView":6,"componentType":5125,"count":19179,"type":"SCALAR"}]}